<?xml version="1.0" standalone="no"?>
<svg xmlns="http://www.w3.org/2000/svg" viewBox="0 0 112.32 36" width="112.32" height="36"><g fill="#ff8686" color="#ff8686" transform="translate(0 3.9999999999999982) scale(0.5600001)"><svg width="50.0" height="50.0" x="0.0" y="0.0" viewBox="0 0 50 50"><path fill="currentColor" fill-rule="nonzero" d="M42.74 7.68C38.12 3.05 31.96.51 25.42.51 18.88.51 12.73 3.06 8.1 7.68 3.48 12.31.93 18.46.93 25c0 6.54 2.55 12.69 7.17 17.32 4.63 4.63 10.78 7.17 17.32 7.17 2.56 0 5.09-.4 7.51-1.18l.15-.05c.58-.19.58-.19 1.21-.44l.12-.05a24.6 24.6 0 0 0 6.78-4.05c.65-.55.93-.8 1.54-1.41 4.63-4.63 7.17-10.78 7.17-17.32.01-6.53-2.54-12.68-7.16-17.31zM24.62 42.16v5.56a22.616 22.616 0 0 1-14.11-5.56h14.11zm0-7.93v6.18H8.7a22.46 22.46 0 0 1-4.07-6.18h19.99zM2.68 24.55c.11-5.62 2.24-10.9 6.06-15.01l.01 15.01H2.68zm21.94 1.75v6.18H3.94c-.69-1.99-1.1-4.06-1.22-6.18h21.9zM10.49 7.84c1.86-1.62 3.94-2.91 6.19-3.85v20.55H10.5l-.01-16.7zm14.13-5.57v22.27h-6.18V3.35c1.99-.64 4.07-1 6.18-1.08zm23.5 24.03a22.599 22.599 0 0 1-5.89 14v-14h5.89zm-7.64 0v15.73a22.423 22.423 0 0 1-6.18 3.9V26.3h6.18zm-7.93 0v20.3c-1.99.66-4.07 1.03-6.18 1.12V26.3h6.18zm15.6-1.75H26.37v-6.18h20.8c.61 2 .94 4.07.98 6.18zm-21.78-7.93v-6.18h16.51c1.55 1.86 2.79 3.94 3.68 6.18H26.37zm0-7.93V2.28c5.6.23 10.86 2.49 14.89 6.41H26.37z"></path></svg></g><path fill="#fe0b01" fill-rule="nonzero" d="M5.47 16.68Q4.15 16.68 2.88 16.32Q1.61 15.96 0.80 15.29Q0 14.62 0 13.75L0 13.75L0 11.18L0.43 11.18Q0.84 13.58 2.02 14.65Q3.19 15.72 5.26 15.72L5.26 15.72Q6.55 15.72 7.48 15.07Q8.40 14.42 8.40 13.27L8.40 13.27Q8.40 12.26 7.78 11.52Q7.15 10.78 5.76 9.96L5.76 9.96L2.81 8.21Q1.27 7.30 0.64 6.36Q0 5.42 0 4.08L0 4.08Q0 2.23 1.28 1.12Q2.57 0 4.66 0L4.66 0Q5.88 0 7.08 0.35Q8.28 0.70 9.06 1.36Q9.84 2.02 9.84 2.88L9.84 2.88L9.84 5.45L9.41 5.45Q9 3.05 7.86 2.00Q6.72 0.96 4.66 0.96L4.66 0.96Q3.55 0.96 2.71 1.63Q1.87 2.30 1.87 3.38L1.87 3.38Q1.87 4.37 2.48 5.02Q3.10 5.66 4.54 6.53L4.54 6.53L7.49 8.28Q9.12 9.26 9.79 10.10Q10.46 10.94 10.46 12.24L10.46 12.24Q10.46 14.26 9.12 15.47Q7.78 16.68 5.47 16.68L5.47 16.68ZM15.91 16.51Q15.14 16.51 14.35 16.19Q13.56 15.86 13.00 15.12Q12.43 14.38 12.43 13.15L12.43 13.15Q12.43 11.33 14.12 10.56Q15.82 9.79 18.55 9.79L18.55 9.79L19.27 9.79Q19.27 7.44 18.62 6.58Q17.98 5.71 16.75 5.71L16.75 5.71Q15.67 5.71 15.02 6.17Q14.38 6.62 14.11 7.75L14.11 7.75L13.03 7.75Q13.03 6.94 13.13 6.47Q13.22 6.00 13.63 5.59L13.63 5.59Q14.06 5.16 15.06 4.96Q16.06 4.75 17.23 4.75L17.23 4.75Q19.18 4.75 20.30 5.80Q21.43 6.84 21.43 9.79L21.43 9.79L21.43 16.27L20.23 16.27L19.39 15.19L19.27 15.19Q18.84 15.74 18 16.13Q17.16 16.51 15.91 16.51L15.91 16.51ZM16.99 15.43Q17.78 15.43 18.31 15.05Q18.84 14.66 19.27 13.99L19.27 13.99L19.27 10.75L18.55 10.75Q16.78 10.75 15.74 11.41Q14.71 12.07 14.71 13.15L14.71 13.15Q14.71 14.26 15.37 14.84Q16.03 15.43 16.99 15.43L16.99 15.43ZM25.13 20.83L25.13 7.87Q25.13 6.65 24.79 6.06Q24.46 5.47 23.45 5.47L23.45 5.47L22.97 5.47L22.97 4.99L25.13 4.99Q26.04 4.99 26.51 5.24Q26.98 5.50 27.17 6.07L27.17 6.07L27.29 6.07Q27.72 5.52 28.51 5.14Q29.30 4.75 30.53 4.75L30.53 4.75Q32.59 4.75 33.72 6.42Q34.85 8.09 34.85 10.63L34.85 10.63Q34.85 13.20 33.68 14.86Q32.52 16.51 30.29 16.51L30.29 16.51Q29.38 16.51 28.68 16.32Q27.98 16.13 27.29 15.79L27.29 15.79L27.29 20.83L25.13 20.83ZM29.57 15.55Q31.10 15.55 31.84 14.21Q32.57 12.86 32.57 10.63L32.57 10.63Q32.57 8.42 31.87 7.07Q31.18 5.71 29.81 5.71L29.81 5.71Q28.20 5.71 27.29 7.15L27.29 7.15L27.29 14.83Q28.01 15.17 28.54 15.36Q29.06 15.55 29.57 15.55L29.57 15.55ZM38.95 3.55Q38.40 3.55 38.00 3.10Q37.61 2.64 37.61 2.02L37.61 2.02Q37.61 1.51 37.91 1.22Q38.21 0.94 38.71 0.94L38.71 0.94Q39.26 0.94 39.66 1.39Q40.06 1.85 40.06 2.47L40.06 2.47Q40.06 2.98 39.76 3.26Q39.46 3.55 38.95 3.55L38.95 3.55ZM38.04 16.27L38.04 7.87Q38.04 6.65 37.70 6.06Q37.37 5.47 36.36 5.47L36.36 5.47L35.88 5.47L35.88 4.99L38.04 4.99Q38.93 4.99 39.37 5.22Q39.82 5.45 40.01 6.05Q40.20 6.65 40.20 7.87L40.20 7.87L40.20 16.27L38.04 16.27ZM47.98 16.51Q46.34 16.51 45.22 15.73Q44.09 14.95 43.51 13.62Q42.94 12.29 42.94 10.63L42.94 10.63Q42.94 9.00 43.51 7.66Q44.09 6.31 45.18 5.53Q46.27 4.75 47.74 4.75L47.74 4.75Q50.16 4.75 51.35 6.11Q52.54 7.46 52.54 10.03L52.54 10.03L52.49 10.99L45.22 10.99Q45.22 13.01 46.08 14.28Q46.94 15.55 48.46 15.55L48.46 15.55Q49.58 15.55 50.36 15.07Q51.14 14.59 51.82 13.63L51.82 13.63L52.30 13.99Q51.50 15.31 50.45 15.91Q49.39 16.51 47.98 16.51L47.98 16.51ZM45.22 10.03L50.26 10.03Q50.26 7.92 49.63 6.82Q49.01 5.71 47.74 5.71L47.74 5.71Q47.02 5.71 46.44 6.28Q45.86 6.84 45.54 7.82Q45.22 8.81 45.22 10.03L45.22 10.03ZM55.66 16.27L55.66 7.87Q55.66 6.65 55.32 6.06Q54.98 5.47 53.98 5.47L53.98 5.47L53.50 5.47L53.50 4.99L55.66 4.99Q56.54 4.99 57.01 5.23Q57.48 5.47 57.70 5.95L57.70 5.95L57.82 5.95Q58.32 5.45 59.12 5.10Q59.93 4.75 60.94 4.75L60.94 4.75Q62.74 4.75 63.88 5.71Q65.02 6.67 65.02 9.07L65.02 9.07L65.02 16.27L62.86 16.27L62.86 9.07Q62.86 7.39 62.10 6.61Q61.34 5.83 60.22 5.83L60.22 5.83Q58.94 5.83 57.82 7.10L57.82 7.10L57.82 16.27L55.66 16.27ZM72.12 16.51Q69.36 16.51 68.40 15.55L68.40 15.55Q67.99 15.14 67.90 14.63Q67.80 14.11 67.80 13.03L67.80 13.03L68.28 13.03Q68.50 14.23 69.32 14.89Q70.15 15.55 71.64 15.55L71.64 15.55Q72.96 15.55 73.62 15.10Q74.28 14.64 74.28 13.87L74.28 13.87Q74.28 13.18 73.76 12.67Q73.25 12.17 72.12 11.71L72.12 11.71L70.68 11.11Q69.24 10.54 68.52 9.77Q67.80 9.00 67.80 7.87L67.80 7.87Q67.80 6.41 68.90 5.58Q70.01 4.75 71.76 4.75L71.76 4.75Q74.40 4.75 75.36 5.71L75.36 5.71Q75.77 6.12 75.86 6.62Q75.96 7.13 75.96 8.23L75.96 8.23L75.48 8.23Q75.29 7.03 74.47 6.37Q73.66 5.71 72.24 5.71L72.24 5.71Q71.11 5.71 70.48 6.18Q69.84 6.65 69.84 7.39L69.84 7.39Q69.84 8.64 71.76 9.43L71.76 9.43L73.20 10.03Q74.83 10.70 75.58 11.46Q76.32 12.22 76.32 13.39L76.32 13.39Q76.32 14.86 75.14 15.68Q73.97 16.51 72.12 16.51L72.12 16.51Z" transform="translate(36, 9.864)"></path></svg>